<svg width="27" height="26" fill="none" xmlns="http://www.w3.org/2000/svg"><path fill-rule="evenodd" clip-rule="evenodd" d="M.535 13c0-7.169 5.906-13 13.166-13 7.279 0 13.184 5.831 13.166 13 0 7.169-5.887 13-13.166 13C6.441 26 .535 20.187.535 13zm17.661-3.79c.019-2.358-1.937-4.29-4.307-4.29-2.407 0-4.345 1.913-4.345 4.272 0 2.321 1.9 4.234 4.27 4.271 2.407.037 4.382-1.876 4.382-4.253zm.517 5.785c.005-.014.01-.027.01-.046v-.186a1.913 1.913 0 00-.075-.316c-.264-.724-1.148-1.04-1.825-.65-.414.223-.809.428-1.26.576-.47.149-.94.242-1.41.26a5.414 5.414 0 01-2.747-.557 3.46 3.46 0 01-.45-.241c-.79-.502-1.844 0-1.938.928-.057.502.15.91.583 1.189a8.182 8.182 0 002.426 1.003c.075.018.075.018.019.074l-1.392 1.374-.94.929c-.358.353-.47.78-.32 1.263.15.482.489.761.997.854a.14.14 0 01.047.01.159.159 0 00.047.008h.244l.025-.003c.107-.018.228-.038.333-.09.169-.074.3-.166.432-.297l2.295-2.265c.028-.028.042-.042.056-.042.014 0 .029.014.057.042l2.276 2.247c.225.204.47.353.77.39 0 .018.02.018.038.018h.245l.107-.024c.114-.025.225-.049.325-.105.79-.372.96-1.393.339-2.006l-1.317-1.3-1.034-1.022c-.028-.028-.043-.042-.04-.05.003-.01.021-.015.059-.024a8.55 8.55 0 001.786-.65c.226-.111.452-.241.659-.371.32-.205.508-.502.564-.873 0-.019.005-.033.01-.047zM15.638 9.21c.019.91-.771 1.746-1.787 1.746a1.77 1.77 0 01-1.768-1.764c0-.966.809-1.746 1.787-1.746 1.016 0 1.787.854 1.768 1.764z" fill="#CDCDCD"/></svg>