<svg width="27" height="26" viewBox="0 0 27 26" fill="none" xmlns="http://www.w3.org/2000/svg">
<path fill-rule="evenodd" clip-rule="evenodd" d="M0.5354 12.9999C0.5354 5.8314 6.44113 0 13.701 0C20.9797 0 26.8855 5.8314 26.8667 12.9999C26.8667 20.1685 20.9797 25.9999 13.701 25.9999C6.44113 25.9999 0.5354 20.187 0.5354 12.9999ZM18.1962 9.21138C18.215 6.85282 16.2589 4.9214 13.8891 4.9214C11.4817 4.9214 9.54445 6.83425 9.54445 9.19281C9.54445 11.5142 11.4441 13.4271 13.8139 13.4642C16.2213 13.5014 18.1962 11.5885 18.1962 9.21138ZM18.7134 14.9964C18.7181 14.9824 18.7228 14.9685 18.7228 14.9499V14.7642C18.704 14.6528 18.6852 14.5599 18.6475 14.4485C18.3842 13.7242 17.5003 13.4085 16.8232 13.7985C16.4094 14.0214 16.0144 14.2256 15.563 14.3742C15.0928 14.5228 14.6226 14.6156 14.1524 14.6342C13.1932 14.6899 12.2716 14.5042 11.4064 14.0771C11.2372 14.0028 11.1055 13.9285 10.9551 13.8356C10.1651 13.3342 9.11187 13.8356 9.01783 14.7642C8.9614 15.2656 9.16829 15.6742 9.60088 15.9528C10.3344 16.3985 11.1055 16.7328 11.9519 16.9371C11.9613 16.9371 11.9754 16.9417 11.9895 16.9463C12.0036 16.951 12.0177 16.9556 12.0271 16.9556C12.1023 16.9742 12.1023 16.9742 12.0459 17.0299L10.6541 18.4042L9.71373 19.3328C9.35637 19.6856 9.24352 20.1128 9.39399 20.5956C9.54445 21.0785 9.883 21.357 10.3908 21.4499C10.4096 21.4499 10.4237 21.4545 10.4378 21.4592C10.4519 21.4638 10.466 21.4685 10.4849 21.4685H10.7294C10.7373 21.4672 10.7454 21.4658 10.7536 21.4645C10.8607 21.4471 10.9818 21.4274 11.0867 21.3756C11.256 21.3013 11.3876 21.2085 11.5193 21.0785L13.8139 18.8128C13.8421 18.7849 13.8562 18.771 13.8703 18.771C13.8844 18.771 13.8985 18.7849 13.9267 18.8128L16.2025 21.0599C16.4282 21.2642 16.6727 21.4128 16.9736 21.4499C16.9736 21.4685 16.9924 21.4685 17.0112 21.4685H17.2558C17.2914 21.4597 17.3271 21.4519 17.3625 21.4442C17.4765 21.4194 17.5879 21.3952 17.6883 21.3385C18.4783 20.967 18.6475 19.9456 18.0269 19.3328L16.7103 18.0328L15.6759 17.0113C15.6475 16.9833 15.6334 16.9694 15.636 16.9601C15.6385 16.9509 15.6573 16.9463 15.6947 16.9371C16.3153 16.7885 16.9172 16.5656 17.4814 16.2871C17.7071 16.1756 17.9328 16.0456 18.1397 15.9156C18.4595 15.7114 18.6475 15.4142 18.704 15.0428C18.704 15.0242 18.7087 15.0103 18.7134 14.9964ZM15.638 9.2113C15.6568 10.1213 14.8668 10.957 13.8512 10.957C12.8732 10.957 12.0833 10.1584 12.0833 9.19273C12.0833 8.22702 12.892 7.44702 13.87 7.44702C14.8857 7.44702 15.6568 8.3013 15.638 9.2113Z" fill="#CDCDCD"/>
</svg>
